<svg width="150" height="150" viewBox="0 0 150 150" fill="none" xmlns="http://www.w3.org/2000/svg">
<path d="M147.186 128.225L131.889 102.732L133.258 91.0194H135.206C138.659 91.0194 141.467 88.2111 141.467 84.7584V77.5864C141.467 74.1348 138.659 71.3264 135.206 71.3264H126.616V63.113C126.616 63.0913 126.617 63.0684 126.617 63.0455C126.617 62.5294 126.439 62.0544 126.14 61.6791C126.14 61.6779 126.139 61.6768 126.138 61.6756L118.552 52.1416V44.133C118.552 41.4917 116.404 39.3425 113.762 39.3425H104.929C104.872 39.2292 104.815 39.1193 104.758 39.0118C103.67 36.9644 100.67 34.3437 95.8408 31.2206C94.8406 30.5752 94.2432 29.4731 94.2432 28.2715V22.4487C95.1839 21.9818 95.8328 21.0114 95.8328 19.891V7.66525C95.8328 3.43895 92.395 0 88.1675 0H79.8202C75.5928 0 72.155 3.43895 72.155 7.66525V19.891C72.155 21.0114 72.8027 21.9818 73.7445 22.4487V28.2715C73.7445 29.4731 73.146 30.5752 72.1447 31.2218C71.347 31.7368 70.4532 32.3353 69.5434 32.9819C69.5503 32.8114 69.5549 32.6408 69.5549 32.4692C69.5549 26.0078 64.2974 20.7504 57.8361 20.7504C51.3736 20.7504 46.1174 26.0078 46.1174 32.4692C46.1174 33.2954 46.2066 34.1286 46.3817 34.9377C46.6449 36.1851 46.891 37.3455 47.1199 38.427C44.4465 37.4805 41.3566 37.9074 39.0026 39.8266C37.2676 41.2434 36.1873 43.2507 35.9619 45.48C35.7353 47.7093 36.391 49.8928 37.7998 51.6174C38.1694 52.0752 38.5974 52.4998 39.0666 52.8751L45.6081 58.1463C41.9254 61.3964 39.5427 66.0862 39.3505 71.3264H28.8631L28.4053 70.4659C28.474 70.4304 28.5427 70.3938 28.6102 70.3583C35.6357 66.6206 41.4962 60.4832 39.1021 55.9822C36.708 51.4812 28.3435 52.9095 21.318 56.6471C21.2493 56.6826 21.1807 56.7192 21.1132 56.757L18.1594 51.2043C18.2281 51.1688 18.2968 51.1322 18.3654 51.0967C21.8662 49.2348 24.8874 46.907 26.8741 44.5415C30.1471 40.6471 29.5211 37.9704 28.8562 36.7207C28.1913 35.471 26.3214 33.4545 21.2619 33.9912C18.1915 34.3174 14.5717 35.5225 11.0721 37.3844C11.0034 37.421 10.9348 37.4577 10.8673 37.4943L8.65283 33.3332C7.41801 31.0123 6.79202 28.5095 6.79202 25.8957C6.79202 20.0031 10.0193 14.6267 15.216 11.8629C18.9594 9.87167 23.2555 9.4574 27.3101 10.6956C31.3648 11.935 34.695 14.6793 36.6863 18.4227L40.4708 25.5421C41.0408 26.6132 42.3706 27.0206 43.4429 26.4496C44.514 25.8808 44.9214 24.5499 44.3515 23.4787L40.5658 16.3593C35.3176 6.49109 23.0197 2.73514 13.1515 7.9834C6.5185 11.5116 2.39749 18.3746 2.39749 25.8957C2.39749 29.1904 3.21917 32.476 4.77328 35.3966L23.8849 71.3264H14.9368C11.4841 71.3264 8.67571 74.1348 8.67571 77.5864V84.7584C8.67571 88.2111 11.4841 91.0194 14.9368 91.0194H16.8834L18.2544 102.732L2.9571 128.225C2.08621 129.676 1.83215 131.38 2.24185 133.023C2.65269 134.664 3.67808 136.049 5.12919 136.919C5.86276 137.359 6.66041 137.643 7.50155 137.762C7.80139 137.804 8.09893 137.825 8.39533 137.825C10.5995 137.825 12.6663 136.676 13.8244 134.747L20.6657 123.347L21.1589 127.58C21.2905 128.698 22.2393 129.522 23.339 129.522C23.4237 129.522 23.5107 129.517 23.5965 129.507C24.8016 129.366 25.6645 128.275 25.5237 127.069L24.369 117.175L40.0646 91.0194H110.078L125.774 117.175L123.016 140.75C122.693 143.518 120.348 145.605 117.561 145.605H32.5813C29.7935 145.605 27.4486 143.518 27.1259 140.747L26.5457 135.793C26.4049 134.588 25.3131 133.725 24.1081 133.867C22.903 134.008 22.0401 135.1 22.182 136.305L22.7611 141.257C23.3413 146.242 27.5642 150 32.5824 150H117.561C122.579 150 126.802 146.242 127.381 141.258L129.476 123.344L136.319 134.746C138.136 137.773 142.033 138.707 145.014 136.919C148.017 135.117 148.988 131.228 147.186 128.225V128.225ZM23.3814 60.5267C30.4584 56.7616 34.8964 57.4356 35.2226 58.0456C35.5464 58.6555 33.6238 62.7136 26.5468 66.4776C26.4793 66.5142 26.4106 66.5508 26.342 66.5863L23.1765 60.6354C23.2452 60.5988 23.3127 60.5621 23.3814 60.5267ZM13.1355 41.264C16.1075 39.6835 19.2386 38.625 21.7266 38.3617C23.9112 38.1306 24.8725 38.5895 24.9767 38.784C25.0797 38.9786 24.924 40.0326 23.5107 41.7149C21.9005 43.6306 19.2741 45.6356 16.3009 47.216C16.2334 47.2527 16.1647 47.2881 16.0961 47.3248L12.9318 41.3738C12.9993 41.3372 13.0668 41.3006 13.1355 41.264ZM128.186 96.563L124.86 91.0194H128.834L128.186 96.563ZM83.6345 71.3264V63.8111L90.5628 55.1044H115.295L119.864 60.8482H109.909C108.695 60.8482 107.712 61.8324 107.712 63.0455C107.712 64.2586 108.695 65.2428 109.909 65.2428H122.222V71.3264H83.6345ZM114.158 44.1319V50.7099H91.7003V44.1319C91.7003 43.9144 91.8777 43.737 92.0951 43.737H103.429C103.449 43.737 103.467 43.7382 103.487 43.7382C103.506 43.7382 103.525 43.737 103.545 43.737H113.762C113.981 43.737 114.158 43.9144 114.158 44.1319ZM79.8202 4.39453H88.1675C89.9711 4.39453 91.4382 5.86166 91.4382 7.66525V18.3483H76.5495V7.66525C76.5495 5.86166 78.0166 4.39453 79.8202 4.39453V4.39453ZM74.5285 34.9136C76.7887 33.4557 78.1391 30.9723 78.1391 28.2715V22.744H89.8487V28.2715C89.8487 30.9723 91.1991 33.4557 93.457 34.9125C96.4954 36.8774 98.3081 38.3308 99.3862 39.3425H92.0951C89.4538 39.3425 87.3058 41.4906 87.3058 44.1319V52.1404L79.7184 61.6756C79.4082 62.0647 79.24 62.5465 79.24 63.0432V71.3264H76.3217C76.1283 66.0862 73.7468 61.3964 70.0653 58.1463C70.8034 57.5512 71.6697 56.8542 72.7169 56.0097L76.6021 52.8797C77.0656 52.5089 77.4913 52.0866 77.8656 51.6277C79.2835 49.8917 79.9392 47.7081 79.7126 45.4788C79.486 43.2495 78.4057 41.2422 76.6674 39.8254C74.9313 38.4098 72.7478 37.7552 70.5207 37.9818C70.3914 37.9955 70.2621 38.0116 70.1351 38.0299C71.3367 37.072 72.8267 36.0134 74.5285 34.9136ZM66.8941 46.2891C67.4984 45.433 68.0488 42.6498 70.9648 42.3534C72.0256 42.2459 73.0648 42.5571 73.891 43.2312C74.7184 43.9053 75.2334 44.862 75.341 45.9229C75.4795 47.2893 74.9164 48.6008 73.851 49.4534L69.96 52.5879C68.3807 53.8605 67.2157 54.8 66.2761 55.5565C65.8779 55.3516 65.4705 55.1605 65.0562 54.9843L66.8941 46.2891ZM57.8361 25.145C61.8747 25.145 65.1603 28.4317 65.1603 32.4692C65.1603 32.9933 65.1054 33.514 64.9944 34.0279L64.1407 38.0653C64.1361 38.0871 64.1304 38.1088 64.1269 38.1306L60.8242 53.7575C59.8514 53.5995 58.8535 53.5172 57.8361 53.5172C56.8199 53.5172 55.8219 53.5995 54.8503 53.7575L54.8229 53.6293C54.0596 50.013 53.2413 46.1357 50.679 34.0187C50.568 33.5049 50.5119 32.9842 50.5119 32.4703C50.5119 28.4317 53.7975 25.145 57.8361 25.145ZM41.2136 48.8491C39.8208 47.1439 40.076 44.6228 41.7812 43.2312C43.7187 41.6519 46.6838 42.207 47.8683 44.5221L48.7838 46.3005C49.6089 50.2064 50.0759 52.4162 50.5222 54.5357L50.6172 54.9831C50.2029 55.1594 49.7966 55.3505 49.3972 55.5553C41.3955 49.0734 41.6656 49.4087 41.2136 48.8491ZM57.8361 57.9117C65.3823 57.9117 71.5621 63.8683 71.9226 71.3264H43.7496C44.1101 63.8683 50.2899 57.9117 57.8361 57.9117ZM21.3077 91.0194H25.2834L21.9566 96.563L21.3077 91.0194ZM10.0559 132.485C9.65304 133.157 8.89201 133.519 8.11724 133.41H8.1161C7.8609 133.373 7.61599 133.286 7.39054 133.151C6.94537 132.884 6.6318 132.46 6.50591 131.956C6.38003 131.453 6.45785 130.931 6.7245 130.486L22.3972 104.368C22.3995 104.367 22.4006 104.364 22.4018 104.362L31.0077 90.0215C31.0375 89.9746 31.0672 89.9265 31.0935 89.8773L35.8863 81.8905C36.153 81.4453 36.5776 81.1317 37.0811 81.0059C37.2379 80.9658 37.397 80.9464 37.5549 80.9464C37.9028 80.9464 38.245 81.0413 38.5517 81.2244C39.4695 81.776 39.7693 82.9708 39.2177 83.8898L36.9712 87.6331C36.9461 87.672 36.9232 87.711 36.9003 87.751L10.0559 132.485ZM42.7013 86.6249L42.9862 86.1511C43.8571 84.7 44.1101 82.996 43.7004 81.3538C43.2895 79.7127 42.2641 78.3279 40.813 77.457C39.3619 76.5862 37.6579 76.3321 36.0157 76.7429C34.3734 77.1538 32.9898 78.1792 32.1189 79.6303L27.9201 86.6249H14.9368C13.908 86.6249 13.0702 85.7883 13.0702 84.7584V77.5864C13.0702 76.5575 13.908 75.721 14.9368 75.721H135.206C136.235 75.721 137.073 76.5575 137.073 77.5864V84.7584C137.073 85.7883 136.235 86.6249 135.206 86.6249H122.223L118.025 79.6303C117.154 78.178 115.77 77.1526 114.127 76.7429C112.485 76.3321 110.782 76.5862 109.33 77.457C107.879 78.3279 106.853 79.7127 106.444 81.3538C106.033 82.996 106.287 84.7 107.158 86.1511L107.442 86.6249H42.7013ZM142.026 133.41C141.983 133.403 140.742 133.577 140.087 132.485C138.443 129.745 112.474 86.4716 110.925 83.8909C110.374 82.972 110.672 81.776 111.591 81.2256C112.511 80.6728 113.704 80.9704 114.257 81.8916C115.878 84.5947 126.163 101.732 127.735 104.353C127.739 104.359 127.742 104.364 127.746 104.37L143.417 130.487C144.141 131.689 143.383 133.217 142.026 133.41V133.41Z" fill="#DEE0E6"/>
<path d="M52.3773 110.205V102.935C52.3773 99.6998 49.7451 97.0665 46.5099 97.0665C43.2735 97.0665 40.6414 99.6998 40.6414 102.935V110.205C40.6414 113.441 43.2735 116.074 46.5099 116.074C49.7451 116.074 52.3773 113.441 52.3773 110.205ZM45.0359 110.205V102.935C45.0359 102.123 45.6974 101.461 46.5099 101.461C47.3224 101.461 47.9839 102.123 47.9839 102.935V110.205C47.9839 111.018 47.3224 111.679 46.5099 111.679C45.6974 111.679 45.0359 111.018 45.0359 110.205Z" fill="#DEE0E6"/>
<path d="M66.6585 133.958V126.688C66.6585 123.452 64.0264 120.82 60.7911 120.82C57.5547 120.82 54.9226 123.452 54.9226 126.688V133.958C54.9226 137.194 57.5547 139.826 60.7911 139.826C64.0264 139.826 66.6585 137.194 66.6585 133.958ZM59.3171 133.958V126.688C59.3171 125.876 59.9775 125.214 60.7911 125.214C61.6037 125.214 62.264 125.876 62.264 126.688V133.958C62.264 134.77 61.6037 135.432 60.7911 135.432C59.9775 135.432 59.3171 134.77 59.3171 133.958Z" fill="#DEE0E6"/>
<path d="M80.9395 110.205V102.935C80.9395 99.6998 78.3074 97.0665 75.0721 97.0665C71.8358 97.0665 69.2036 99.6998 69.2036 102.935V110.205C69.2036 113.441 71.8358 116.074 75.0721 116.074C78.3074 116.074 80.9395 113.441 80.9395 110.205ZM73.5981 110.205V102.935C73.5981 102.123 74.2585 101.461 75.0721 101.461C75.8847 101.461 76.545 102.123 76.545 102.935V110.205C76.545 111.018 75.8847 111.679 75.0721 111.679C74.2585 111.679 73.5981 111.018 73.5981 110.205Z" fill="#DEE0E6"/>
<path d="M95.2205 133.958V126.688C95.2205 123.452 92.5883 120.82 89.3519 120.82C86.1167 120.82 83.4834 123.452 83.4834 126.688V133.958C83.4834 137.194 86.1167 139.826 89.3519 139.826C92.5883 139.826 95.2205 137.194 95.2205 133.958ZM87.8791 133.958V126.688C87.8791 125.876 88.5394 125.214 89.3519 125.214C90.1656 125.214 90.8259 125.876 90.8259 126.688V133.958C90.8259 134.77 90.1656 135.432 89.3519 135.432C88.5394 135.432 87.8791 134.77 87.8791 133.958Z" fill="#DEE0E6"/>
<path d="M109.502 110.205V102.935C109.502 99.6998 106.87 97.0665 103.633 97.0665C100.398 97.0665 97.7646 99.6998 97.7646 102.935V110.205C97.7646 113.441 100.398 116.074 103.633 116.074C106.87 116.074 109.502 113.441 109.502 110.205ZM102.159 110.205V102.935C102.159 102.123 102.821 101.461 103.633 101.461C104.446 101.461 105.107 102.123 105.107 102.935V110.205C105.107 111.018 104.446 111.679 103.633 111.679C102.821 111.679 102.159 111.018 102.159 110.205Z" fill="#DEE0E6"/>
</svg>
