<svg xmlns="http://www.w3.org/2000/svg" viewBox="0 0 394.38 512"><defs><style>.cls-1{fill:#595959;}</style></defs><title>Asset 1</title><g id="Layer_2" data-name="Layer 2"><g id="Capa_1" data-name="Capa 1"><path class="cls-1" d="M119.47,157V8.53A8.54,8.54,0,0,0,110.93,0H59.73A8.53,8.53,0,0,0,51.2,8.53V157A100.52,100.52,0,0,0,0,245V503.47A8.52,8.52,0,0,0,8.53,512h153.6a8.53,8.53,0,0,0,8.54-8.53V245A100.57,100.57,0,0,0,119.47,157ZM153.6,494.93H17.07V245a83.59,83.59,0,0,1,46.48-75.22,8.55,8.55,0,0,0,4.72-7.64V17.07H102.4V162.13a8.53,8.53,0,0,0,4.72,7.64A83.59,83.59,0,0,1,153.6,245V494.93Z"/><rect class="cls-1" x="59.71" y="42.67" width="51.2" height="17.07"/><path class="cls-1" d="M393.59,276.21,378.31,169.46a8.52,8.52,0,0,0-8.44-7.33H267.47a8.56,8.56,0,0,0-8.46,7.33L243.74,275.74a72,72,0,0,0,1.51,28.81l1.48,6.26a74.05,74.05,0,0,0,71.92,56.12h.13a74.16,74.16,0,0,0,71.85-55.8l1.4-6A72.22,72.22,0,0,0,393.59,276.21Zm-18.12,24.85-1.41,6a57.06,57.06,0,0,1-55.28,42.84h-.11a57,57,0,0,1-55.35-43.1l-1.5-6.33a55,55,0,0,1-1.18-22.23l14.22-99h87.61l14.24,99.47A55.29,55.29,0,0,1,375.47,301.06Z"/><rect class="cls-1" x="310.11" y="358.4" width="17.07" height="110.93"/><path class="cls-1" d="M335.73,460.8H301.6a42.72,42.72,0,0,0-42.67,42.67,8.52,8.52,0,0,0,8.53,8.53h102.4a8.53,8.53,0,0,0,8.54-8.53A42.72,42.72,0,0,0,335.73,460.8Zm-58.27,34.13a25.65,25.65,0,0,1,24.14-17.06h34.13a25.64,25.64,0,0,1,24.14,17.06Z"/><rect class="cls-1" x="250.37" y="281.6" width="136.53" height="17.07"/><rect class="cls-1" x="59.71" y="119.47" width="51.2" height="17.07"/><path class="cls-1" d="M128,264.53H42.67a8.54,8.54,0,0,0-8.54,8.54v153.6a8.54,8.54,0,0,0,8.54,8.53H128a8.53,8.53,0,0,0,8.53-8.53V273.07A8.53,8.53,0,0,0,128,264.53Zm-8.53,153.6H51.2V281.6h68.27Z"/></g></g></svg>