<svg xmlns="http://www.w3.org/2000/svg" viewBox="0 0 365 480"><defs><style>.cls-1{fill:#595959;}</style></defs><title>Beverages</title><g id="Layer_2" data-name="Layer 2"><g id="Layer_1-2" data-name="Layer 1"><path class="cls-1" d="M118,145.79a8,8,0,0,1-6-7.7V8a8,8,0,0,0-8-8H56a8,8,0,0,0-8,8V138.09a8,8,0,0,1-6,7.7A56,56,0,0,0,0,200V472a8,8,0,0,0,8,8H152a8,8,0,0,0,8-8V200A56,56,0,0,0,118,145.79ZM64,16H96V32H64Zm80,360H16V264H144ZM16,464V392H144v72ZM144,248H16V200a40,40,0,0,1,30-38.73,24,24,0,0,0,18-23.18V48H96v90.09a24,24,0,0,0,18,23.2A40,40,0,0,1,144,200Z"/><path class="cls-1" d="M343.23,178.89A119.9,119.9,0,0,1,325,115.29V8a8,8,0,0,0-8-8H269a8,8,0,0,0-8,8V115.29a119.86,119.86,0,0,1-18.21,63.57l-1.12,1.77A135.89,135.89,0,0,0,221,252.71V472a8,8,0,0,0,8,8H357a8,8,0,0,0,8-8V252.71a135.92,135.92,0,0,0-20.69-72.11ZM277,16h32V32H277Zm72,448H237V252.71a119.86,119.86,0,0,1,18.21-63.57l1.12-1.76A136,136,0,0,0,277,115.29V48h32v67.29a135.92,135.92,0,0,0,20.69,72.11l1.08,1.71A119.9,119.9,0,0,1,349,252.71Z"/><path class="cls-1" d="M293,280a40,40,0,1,0,40,40A40,40,0,0,0,293,280Zm0,64a24,24,0,1,1,24-24A24,24,0,0,1,293,344Z"/></g></g></svg>