<svg xmlns="http://www.w3.org/2000/svg" viewBox="0 0 512 336.48"><defs><style>.cls-1{fill:#595959;}</style></defs><title>Bread,Bakery</title><g id="Layer_2" data-name="Layer 2"><g id="Capa_1" data-name="Capa 1"><path class="cls-1" d="M481.85,202.64a7.5,7.5,0,1,0-9.7,11.44C488.39,227.84,497,243.25,497,258.64c0,10.33-3.69,19.06-11.32,26.69-12.76,12.76-36.51,22.27-70.59,28.26-30.59,5.37-68.9,8-117.15,7.89-74.5-.1-127-6.55-159.93-19.66q19-13.51,40.74-32.52a26.71,26.71,0,0,0,47.1-14.71,160.17,160.17,0,0,0,.07-29.62q19.76-19.69,35.71-37.29a101.08,101.08,0,0,1,13.68,61.77,27.05,27.05,0,0,0,24.09,29.47,26.72,26.72,0,0,0,29.19-24.18,155.08,155.08,0,0,0-18.15-89.54,403.92,403.92,0,0,1,42.08,3.49c12.52,15.87,20.25,33.14,22.94,51.4a102.6,102.6,0,0,1,0,29.44,26.78,26.78,0,1,0,53,7.7,157.12,157.12,0,0,0-.08-45,153.43,153.43,0,0,0-6.3-26.3,223.77,223.77,0,0,1,21.26,9.4,7.5,7.5,0,1,0,6.8-13.37C409,161,352,149.47,293.41,150q6.06-7.84,11.28-15.3c22-31.33,32.65-57,32.65-78.5,0-14.78-5.14-27.4-15.28-37.51C300.86-2.45,265-5.78,221,9.32,178.78,23.8,133.58,53.68,93.69,93.46,35.9,151.09,0,218.76,0,270.06c0,21.28,6.48,39,18.73,51.2C28.9,331.4,41.4,336.47,56.14,336.47c15.6,0,33.71-5.68,54.21-17q6.3-3.49,12.94-7.71c34.21,16.53,91.42,24.63,174.63,24.75,47.56.06,89-2.71,119.77-8.12,37.69-6.62,63.4-17.23,78.59-32.42,10.45-10.45,15.74-23,15.72-37.32,0-19.92-10.45-39.28-30.15-56Zm-78.2-23a139.75,139.75,0,0,1,10,75.48,11.72,11.72,0,0,1-13.28,10.07,12,12,0,0,1-10-13.57,117,117,0,0,0-17.08-79.49c10.53,2.08,20.69,4.58,30.38,7.51ZM210.91,253.16A11.7,11.7,0,0,1,190,259.31q10.47-9.51,21.61-20.25c0,4.7-.2,9.41-.66,14.1Zm100.87-40.49a142,142,0,0,1,1.88,40.63A11.76,11.76,0,0,1,300.85,264a12,12,0,0,1-10.6-13.11A116.68,116.68,0,0,0,272.06,176q4.71-5.42,9.08-10.65c3.92-.15,7.89-.26,11.88-.3a142.36,142.36,0,0,1,18.76,47.66ZM189.65,39.5a140.37,140.37,0,0,1,31.6,17.58,141.94,141.94,0,0,1,28.8,28.71,11.7,11.7,0,0,1-1.36,15.77,12,12,0,0,1-17.58-1.77A117.73,117.73,0,0,0,207.22,76a119.08,119.08,0,0,0-44.37-20.31q13.38-9,26.8-16.16ZM42.49,184.06a140.39,140.39,0,0,1,32.76,16.3,142.13,142.13,0,0,1,30.06,27.39,11.73,11.73,0,0,1-.64,15.83,12,12,0,0,1-17.63-1,118.21,118.21,0,0,0-24.93-22.73A116.76,116.76,0,0,0,31.6,205.29q4.82-10.5,10.89-21.23Zm60.59,122.25C69.29,325,45.17,326.44,29.32,310.64,19.82,301.16,15,287.51,15,270.06c0-15.32,3.79-32.63,10.76-50.87a102.07,102.07,0,0,1,28,13.11,103.24,103.24,0,0,1,21.76,19.85,27.07,27.07,0,0,0,39.79,2,26.66,26.66,0,0,0,1.62-36,157.16,157.16,0,0,0-33.24-30.27,154.87,154.87,0,0,0-33.29-17c6.15-9.73,13-19.48,20.49-29.1,15.32.86,36.29,4.83,55.63,17.89a103.19,103.19,0,0,1,21.76,19.84,26.77,26.77,0,1,0,41.41-33.94A158.47,158.47,0,0,0,170,125.73a7.5,7.5,0,1,0-9.71,11.42,144.82,144.82,0,0,1,17.75,18,11.75,11.75,0,0,1-1.51,16.61A12,12,0,0,1,159.8,170a117.7,117.7,0,0,0-24.94-22.72,122.26,122.26,0,0,0-52.61-19.44q8.93-10.44,18.79-20.51a145,145,0,0,1,31.63,11.45,7.5,7.5,0,1,0,6.73-13.4,157,157,0,0,0-25.92-10.23,401.94,401.94,0,0,1,32.25-27.3C165.8,70.25,183.47,77,198.28,88a102.69,102.69,0,0,1,20.84,20.8,27.1,27.1,0,0,0,39.66,3.84A26.63,26.63,0,0,0,262,76.77,157,157,0,0,0,230.19,45,153.36,153.36,0,0,0,207.14,30.9c6.29-2.8,12.53-5.28,18.7-7.39,16.63-5.71,31.77-8.55,45-8.55,17.19,0,31.08,4.81,40.67,14.37,7.31,7.29,10.86,16.08,10.86,26.88,0,18.05-10.07,41.56-29.93,69.89-9.92,14.16-22.39,30.7-35.21,44.05-44.69,46.5-98.82,105.54-154.12,136.16Z"/></g></g></svg>