<svg xmlns="http://www.w3.org/2000/svg" viewBox="0 0 348.76 254.7"><defs><style>.cls-1{fill:#595959;}</style></defs><title>Canned Products</title><g id="Layer_2" data-name="Layer 2"><g id="Capa_1" data-name="Capa 1"><path class="cls-1" d="M281.18,30.52c-28.6-10.43-66.53-16.17-106.8-16.17s-78.2,5.74-106.8,16.17c-30.19,11-46.82,26.29-46.82,43s16.63,32,46.82,43c28.61,10.43,66.53,16.18,106.8,16.18s78.2-5.75,106.8-16.18c30.19-11,46.82-26.29,46.82-43S311.37,41.53,281.18,30.52ZM154.19,53l7.24-23.88a5,5,0,0,1,4.86-3.61h18.82a5.11,5.11,0,0,1,4.78,3.35l8.68,23.87a5.07,5.07,0,0,1-4.77,6.82H159.05A5.07,5.07,0,0,1,154.19,53Zm123.57,54.21c-27.54,10-64.25,15.57-103.38,15.57S98.54,117.21,71,107.17C45.43,97.84,30.77,85.58,30.77,73.54S45.43,49.24,71,39.92c22.28-8.13,50.57-13.3,81.28-15-.16.41-.3.82-.43,1.24l-7.24,23.88a15.07,15.07,0,0,0,14.43,19.45H193.8A15.07,15.07,0,0,0,208,49.28L199.29,25.4l-.12-.3c29.68,1.83,57,6.93,78.59,14.82C303.33,49.24,318,61.5,318,73.54S303.33,97.84,277.76,107.17Z"/><path class="cls-1" d="M167.14,53.7l18.07.11h0a5,5,0,0,0,0-10L167.2,43.7h0a5,5,0,0,0,0,10Z"/><path class="cls-1" d="M348.76,73.88C348.76,32.45,272.17,0,174.38,0S0,32.45,0,73.88V179.13c0,.16,0,.32,0,.48,0,.41,0,.81,0,1.22,0,41.42,76.6,73.87,174.38,73.87s174.38-32.45,174.38-73.87c0-.41,0-.81,0-1.21a4,4,0,0,0,0-.49V73.88Zm-10,104.52a5,5,0,0,0,0,1c0,.47,0,.94,0,1.41,0,34.62-75.28,63.87-164.38,63.87S10,215.45,10,180.83c0-.47,0-.94,0-1.41a4.69,4.69,0,0,0,0-1V99.2c23.8,28.69,87.6,48.74,164.38,48.74S315,127.89,338.76,99.2Zm0-104.39v.19c0,.11,0,.22,0,.33-.93,34.33-75.82,63.22-164.37,63.22S11,108.86,10,74.53V74.2c0-.06,0-.13,0-.19v-.13C10,39.25,85.28,10,174.38,10S338.76,39.25,338.76,73.87Z"/></g></g></svg>