<svg xmlns="http://www.w3.org/2000/svg" viewBox="0 0 199.96 349.48"><defs><style>.cls-1{fill:#595959;}</style></defs><title>Cooking Wine &amp;amp; Oil &amp;amp; Vinegar</title><g id="Layer_2" data-name="Layer 2"><g id="Capa_1" data-name="Capa 1"><path class="cls-1" d="M45.78,308.75a7.5,7.5,0,0,1-6.63-4c-24.83-46.53-.77-85.93.26-87.59a7.5,7.5,0,0,1,12.73,7.94c-.87,1.42-20.38,33.95.25,72.58a7.52,7.52,0,0,1-6.61,11Z"/><path class="cls-1" d="M136.7,77.57a54,54,0,0,0-26.36,6.92,168.53,168.53,0,0,1,2.78-18.95,7.5,7.5,0,0,0-5.27-8.71l-2.78-.8,2.61-48.12A7.49,7.49,0,0,0,100.2,0H61.85a7.5,7.5,0,0,0-7.48,8.07L57,42.17l-13.1-3.78A7.5,7.5,0,0,0,35.22,49.2L53.37,82.39c5.82,57-20.93,94.53-26.95,102.17C9.63,204.16,0,232,0,261.05c0,34.32,7.43,56,24,69.62a21.21,21.21,0,0,0,21.05,18.81h73.79a21.22,21.22,0,0,0,21.05-18.8c16.57-13.64,24-35.32,24-69.63a129.12,129.12,0,0,0-4.84-35.1c11.21-5.14,21.17-14.16,28.37-25.86A87.31,87.31,0,0,0,200,154.23C200,112,171.58,77.57,136.7,77.57ZM92.28,15l-2,36.76L72.35,46.6,69.94,15Zm4.87,54.36a170.13,170.13,0,0,0,1.26,64.72H65.46a168.45,168.45,0,0,0,2.69-54.66,7.25,7.25,0,0,0-.89-2.9L57,57.79Zm31.2,251.29a8.59,8.59,0,0,0-3.37,8.44,6.19,6.19,0,0,1-6.13,5.39H45.06a6.19,6.19,0,0,1-6.13-5.39,8.63,8.63,0,0,0-3.38-8.44C21.34,310.28,15,291.9,15,261.05c0-24.82,7.89-48.48,21.68-65.33,2.16-2.49,15.82-18.91,24.74-46.65h41c8.94,27.73,22.61,44.16,24.79,46.65C141,212.57,148.91,236.23,148.91,261,148.91,291.9,142.57,310.29,128.35,320.65Zm15.5-127.74a95.09,95.09,0,0,0-6.47-8.47,127,127,0,0,1-17.29-30.88,147.31,147.31,0,0,1-7.89-27.27c5.77-7.34,13.57-11.6,21.66-11.6,17.07,0,31,18,31,40.21C164.82,172.15,156,187.41,143.85,192.91Zm10.23,18.83q-1.26-3-2.65-5.81c16.81-8.31,28.39-28.16,28.39-51,0-30.44-20.62-55.21-46-55.21-8.57,0-17,5-24.14,10.15-.09-1.55.07-5.2,0-6.75.13-.11.27-.19.4-.3,7.9-6.69,17.08-10.22,26.55-10.22,26.61,0,48.26,27.66,48.26,61.66C185,179.77,172.47,202.62,154.08,211.74Z"/></g></g></svg>