<svg xmlns="http://www.w3.org/2000/svg" viewBox="0 0 464.89 455"><defs><style>.cls-1{fill:#595959;}</style></defs><title>Dried Vegetable 1</title><g id="Layer_2" data-name="Layer 2"><g id="Capa_1" data-name="Capa 1"><path class="cls-1" d="M86.13,378.77a23.78,23.78,0,0,1-7-16.89A25.62,25.62,0,0,0,53.55,336.3H45.36a25.62,25.62,0,0,0-25.58,25.58,23.74,23.74,0,0,1-7,16.89A43.38,43.38,0,0,0,0,409.64v1.7A43.71,43.71,0,0,0,43.66,455H55.25a43.71,43.71,0,0,0,43.66-43.66v-1.7A43.34,43.34,0,0,0,86.13,378.77Zm-7,32.57a23.92,23.92,0,0,1-23.88,23.88H43.66a23.92,23.92,0,0,1-23.88-23.88v-1.7a23.75,23.75,0,0,1,7-16.89,43.38,43.38,0,0,0,12.78-30.87,5.79,5.79,0,0,1,5.79-5.79h8.19a5.8,5.8,0,0,1,5.8,5.79,43.38,43.38,0,0,0,12.78,30.87,23.78,23.78,0,0,1,7,16.89v1.7Z"/><path class="cls-1" d="M177.55,257.17,192,242.68A37.87,37.87,0,0,0,165.25,178h-2.69a49.53,49.53,0,0,0-48.46-39.56h-5.79l-2-2a44.86,44.86,0,0,0-63.44,63.44l2,2v5.8a49.53,49.53,0,0,0,39.56,48.46v2.7a37.87,37.87,0,0,0,64.64,26.77l14.49-14.49,32.57,32.57,14-14Zm-14-14L131,210.62l-14,14,32.59,32.57-14.49,14.49a18.1,18.1,0,0,1-30.88-12.78V237.39H94.32a29.67,29.67,0,0,1-29.67-29.67v-14l-7.84-7.84c-10.67-8.86-13.43-23.12-4.57-33.78a4,4,0,0,1,4.57-1.69,25.09,25.09,0,0,1,35.47,0l7.84,7.84h14a29.68,29.68,0,0,1,29.67,29.67v9.9h21.47A18.08,18.08,0,0,1,178,228.7Z"/><path class="cls-1" d="M341.25,306.63H336.3a34.62,34.62,0,1,0-69.23,0h-4.95a34.62,34.62,0,0,0,0,69.24h4.95v39.56H336.3V375.87h4.95a34.62,34.62,0,0,0,0-69.24Zm-24.73,89H286.85V375.87h29.67Zm24.73-39.56H262.12a14.84,14.84,0,0,1,0-29.68h24.73V306.63a14.84,14.84,0,1,1,29.67,0v19.78h24.73a14.84,14.84,0,0,1,0,29.68Z"/><path class="cls-1" d="M168.15,316.52h-9.89A49.53,49.53,0,0,0,108.8,366v9.89a19.78,19.78,0,0,0,19.79,19.78h9.89a49.5,49.5,0,0,0,49.45-49.45v-9.9A19.78,19.78,0,0,0,168.15,316.52Zm0,29.68a29.67,29.67,0,0,1-29.67,29.67h-9.89V366a29.67,29.67,0,0,1,29.67-29.68h9.89Z"/><path class="cls-1" d="M455,187.93a69.25,69.25,0,0,0-69.24,69.24V277a29.67,29.67,0,0,0,19.78,27.85v21.6h19.79v-21.6A29.67,29.67,0,0,0,445.11,277V265.09a48.85,48.85,0,0,1,8.23-27.18,68.64,68.64,0,0,0,11.55-38.11V187.93Zm-18.12,39a68.52,68.52,0,0,0-11.55,38.13V277a9.9,9.9,0,0,1-19.79,0V257.17a49.47,49.47,0,0,1,38.72-48.26A48.8,48.8,0,0,1,436.88,227Z"/><path class="cls-1" d="M265.25,19.78A29.69,29.69,0,0,0,237.39,0H217.61a69.24,69.24,0,0,0-69.24,69.24v9.89h11.87a68.57,68.57,0,0,0,38.13-11.55,48.88,48.88,0,0,1,27.15-8.23h11.87a29.69,29.69,0,0,0,27.86-19.78h21.6V19.78ZM237.39,39.57H225.52a68.45,68.45,0,0,0-38.15,11.55,49.14,49.14,0,0,1-18.05,7.38,49.47,49.47,0,0,1,48.29-38.72h19.78a9.9,9.9,0,0,1,0,19.79Z"/><path class="cls-1" d="M296.74,80.29V59.35H277V80.29a44.43,44.43,0,0,0-34.25,49.29l11.94,89.54a32.48,32.48,0,0,0,64.4,0L331,129.58A44.43,44.43,0,0,0,296.74,80.29Zm14.64,46.65-4.18,31.32H286.85V178h17.71l-5.12,38.44a12.7,12.7,0,0,1-25.18,0l-10.4-78h23V118.7H262.74a24.68,24.68,0,0,1,48.64,8.24Z"/><path class="cls-1" d="M385.76,138.48h-9.89a29.68,29.68,0,0,0,0,59.35h9.89a29.68,29.68,0,0,0,0-59.35Zm0,39.56h-9.89a9.89,9.89,0,1,1,0-19.78h9.89a9.89,9.89,0,0,1,0,19.78Z"/><path class="cls-1" d="M197.83,98.91h-9.9a29.68,29.68,0,0,0,0,59.35h9.9a29.68,29.68,0,0,0,0-59.35Zm0,39.57h-9.9a9.89,9.89,0,0,1,0-19.78h9.9a9.89,9.89,0,0,1,0,19.78Z"/></g></g></svg>