<?xml version="1.0" encoding="utf-8"?>
<!-- Generator: Adobe Illustrator 24.2.3, SVG Export Plug-In . SVG Version: 6.00 Build 0)  -->
<svg version="1.1" id="Capa_1" xmlns="http://www.w3.org/2000/svg" xmlns:xlink="http://www.w3.org/1999/xlink" x="0px" y="0px"
	 viewBox="0 0 320 320" style="enable-background:new 0 0 320 320;" xml:space="preserve">
<style type="text/css">
	.st0{fill:#595959;}
</style>
<polygon class="st0" points="6.4,188.2 16.7,198.5 47.9,167.3 64.7,167.3 33.3,198.6 43.6,208.9 85.3,167.3 142.4,167.3 87,222.7 
	37.8,222.7 37.8,237.2 72.5,237.2 43.3,266.4 53.6,276.7 82.8,247.5 82.8,282.2 97.3,282.2 97.3,233 152.7,177.6 152.7,234.7 
	111.1,276.4 121.3,286.7 152.7,255.3 152.7,272.1 121.5,303.3 131.8,313.6 152.7,292.7 152.7,320 167.3,320 167.3,292.7 
	188.2,313.6 198.5,303.3 167.3,272.1 167.3,255.3 198.6,286.7 208.9,276.4 167.3,234.7 167.3,177.6 222.7,233 222.7,282.2 
	237.2,282.2 237.2,247.5 266.4,276.7 276.7,266.4 247.5,237.2 282.2,237.2 282.2,222.7 233,222.7 177.6,167.3 234.7,167.3 
	276.4,208.9 286.7,198.6 255.3,167.3 272.1,167.3 303.3,198.5 313.6,188.2 292.7,167.3 320,167.3 320,152.7 292.7,152.7 
	313.6,131.8 303.3,121.5 272.1,152.7 255.3,152.7 286.7,121.3 276.4,111.1 234.7,152.7 177.6,152.7 233,97.3 282.2,97.3 282.2,82.8 
	247.5,82.8 271,59.3 260.7,49 237.2,72.5 237.2,37.8 222.7,37.8 222.7,87 167.3,142.4 167.3,85.3 208.9,43.6 198.6,33.3 167.3,64.7 
	167.3,47.9 198.5,16.7 188.2,6.4 167.3,27.3 167.3,0 152.7,0 152.7,27.3 131.8,6.4 121.5,16.7 152.7,47.9 152.7,64.7 121.3,33.3 
	111.1,43.6 152.7,85.3 152.7,142.4 97.3,87 97.3,37.8 82.8,37.8 82.8,72.5 59.3,49 49,59.3 72.5,82.8 37.8,82.8 37.8,97.3 87,97.3 
	142.4,152.7 85.3,152.7 43.6,111.1 33.3,121.3 64.7,152.7 47.9,152.7 16.7,121.5 6.4,131.8 27.3,152.7 0,152.7 0,167.3 27.3,167.3 
	"/>
</svg>
