<svg height='100px' width='100px'  fill="#595959" xmlns="http://www.w3.org/2000/svg" viewBox="0 0 64 64" x="0px" y="0px"><path d="M53,2H43a1,1,0,0,0-1,1V6a1,1,0,0,0,.8.98l.957.192A5.489,5.489,0,0,1,46,8.192v.2a5.724,5.724,0,0,1-2.555,4.773l1.11,1.664a7.712,7.712,0,0,0,3.178-4.441,5.388,5.388,0,0,1,.3.851A1,1,0,0,0,49,12h2v2.853l-2.708,9.026,1.916.575L52.744,16h4.421L59,26.09V49a3,3,0,0,1-3,3H53.417v2H56a5.006,5.006,0,0,0,5-5V26a.978.978,0,0,0-.017-.179L59,14.913V12h2a1,1,0,0,0,1-1A9.01,9.01,0,0,0,53,2Zm4,12H53V12h4Zm1-4H49.737a7.549,7.549,0,0,0-5.584-4.789L44,5.18V4h9a7.011,7.011,0,0,1,6.929,6Z"></path><path d="M7,54h7V52H7a3,3,0,0,1-3-3V34.681a10.984,10.984,0,0,1,.424-3.022l1.538-5.384a.993.993,0,0,0-.014-.591L4.192,20.416a3.759,3.759,0,0,1,1.161-4.074L9.362,13h9.276l2.9,2.418,1.281-1.536L20,11.531V9a1,1,0,0,0-.293-.707L18,6.586V3a1,1,0,0,0-1-1H11a1,1,0,0,0-1,1V6.586L8.293,8.293A1,1,0,0,0,8,9v2.531L4.072,14.805A5.755,5.755,0,0,0,2.3,21.049l1.657,4.974L2.5,31.109A12.99,12.99,0,0,0,2,34.681V49A5.006,5.006,0,0,0,7,54ZM12,4h4V6H12ZM10,9.414,11.414,8h5.172L18,9.414V11H10Z"></path><path d="M20,19c0-2.243-2.636-4-6-4s-6,1.757-6,4,2.636,4,6,4S20,21.243,20,19ZM10,19c0-.944,1.711-2,4-2s4,1.056,4,2-1.711,2-4,2S10,19.944,10,19Z"></path><path d="M12.9,35.168l.672-1.883L7.336,31.058A1,1,0,0,0,6,32V44a5.006,5.006,0,0,0,5,5h2V47H11a3,3,0,0,1-3-3V33.419Z"></path><path d="M39.822,34.405A14.625,14.625,0,0,1,42.239,47.22a2.966,2.966,0,0,0,5.652,1.8h0a19.634,19.634,0,0,0-3.1-18.7l-.4-.511a3.21,3.21,0,0,0-5.078,3.928Zm.86-2.895a1.21,1.21,0,0,1,2.131-.473l.4.511A17.642,17.642,0,0,1,46,48.353a1,1,0,0,1-1.684.263.962.962,0,0,1-.157-.847,16.636,16.636,0,0,0-2.75-14.576l-.515-.676A1.207,1.207,0,0,1,40.682,31.51Z"></path><path d="M20.168,61.555A1,1,0,0,0,21,62H45a1,1,0,0,0,.781-.375l2.5-3.126a26.1,26.1,0,0,0-4.255-36.821L40,18.514V15a1,1,0,0,0-1-1H38V10a2,2,0,0,0-2-2H28a2,2,0,0,0-2,2v4H25a1,1,0,0,0-1,1v3.63l-1.334,1.557A34.438,34.438,0,0,0,20.168,61.555ZM28,10h8v4H28ZM24.184,21.488l1.575-1.837A1,1,0,0,0,26,19V16H38v2H28v2H38.654l4.137,3.25a24.1,24.1,0,0,1,3.929,34L44.52,60H21.54A32.434,32.434,0,0,1,24.184,21.488Z"></path><path d="M30.5,54a11.479,11.479,0,0,0,9.586-5.153,1,1,0,0,0,.153-.719c-1.212-7.2-3.934-12.852-8.093-16.8a1,1,0,0,0-.6-.272C31.2,31.021,30.854,31,30.5,31a11.5,11.5,0,0,0,0,23Zm0-21c.175,0,.349.007.521.018,3.622,3.564,6.034,8.621,7.177,15.044A9.5,9.5,0,1,1,30.5,33Z"></path></svg>