<svg xmlns="http://www.w3.org/2000/svg" viewBox="0 0 511.89 506.63"><defs><style>.cls-1{fill:#595959;}</style></defs><title>Meat &amp;amp; Seafood</title><g id="Layer_2" data-name="Layer 2"><g id="Capa_1" data-name="Capa 1"><path class="cls-1" d="M441.29,244.15c-17.08-3.61-38.31-2.93-63.08,2-47.64,9.5-95.49,31.94-113.85,41.14a96.63,96.63,0,0,0-43,129.54l18.33,36.55a96.61,96.61,0,0,0,129.53,43c21.94-11,35-26.13,48.76-42.15,14.26-16.57,29-33.7,55.24-46.85a70.18,70.18,0,0,0,31.24-94.09l-18.32-36.56C477.52,259.58,462.43,248.62,441.29,244.15Zm40.42,91.6a5.85,5.85,0,0,0,7.5-3.49A69.74,69.74,0,0,0,493,316.53l1,2a58.48,58.48,0,0,1-26,78.39c-28.32,14.2-43.85,32.24-58.87,49.68C396.1,461.73,383.81,476,364,486a84.92,84.92,0,0,1-111.23-33,96.59,96.59,0,0,0,98.14,6.91c21.94-11,35-26.13,48.76-42.15,14.26-16.57,29-33.7,55.24-46.86,1.95-1,3.87-2,5.72-3.2a5.85,5.85,0,0,0-6.2-9.93c-1.53,1-3.14,1.86-4.76,2.68-28.32,14.2-43.85,32.23-58.87,49.67-13,15.11-25.29,29.38-45.13,39.33a84.81,84.81,0,0,1-76-151.63c17.94-9,64.65-30.91,110.9-40.13,50-10,82.06-1.78,95.17,24.37a58.64,58.64,0,0,1,2.56,46.24A5.86,5.86,0,0,0,481.71,335.75Z"/><path class="cls-1" d="M479.08,341.24a5.84,5.84,0,0,0-8.21,1,1,1,0,0,0-.09.13,5.85,5.85,0,1,0,8.3-1.11Z"/><path class="cls-1" d="M313.33,290.76l-.28.12a5.85,5.85,0,1,0,4.4,10.84l.27-.11.43-.2a5.85,5.85,0,0,0-4.82-10.65Z"/><path class="cls-1" d="M454.88,274.79c-10.32-7.65-26.31-10.72-47.5-9.13-17.15,1.29-34.55,5.4-46.13,8.62-6.94,1.93-14.11,4.14-21.32,6.58a5.85,5.85,0,1,0,3.74,11.08c7-2.37,14-4.52,20.72-6.39,39.44-11,69.89-11.46,83.53-1.36a22.73,22.73,0,0,1,6.83,8.3,35,35,0,0,1-15.6,47,178.79,178.79,0,0,0-47.42,34.69c-6.23,6.29-12,13-17.57,19.41-3.69,4.27-7.5,8.68-11.37,12.89-9.77,10.61-18,17.2-27.64,22a61.42,61.42,0,0,1-55.06-109.81c5.91-3,12-5.85,18-8.6l3.07-1.39A5.85,5.85,0,0,0,296.38,298c-1.06.47-2.11.95-3.15,1.43-6.16,2.8-12.35,5.76-18.38,8.79a73.11,73.11,0,1,0,65.54,130.71c10.95-5.49,20.22-12.83,31-24.55,4-4.34,7.86-8.83,11.61-13.16,5.45-6.3,11.08-12.82,17-18.82a167.17,167.17,0,0,1,44.35-32.47,46.76,46.76,0,0,0,20.82-62.69A34.12,34.12,0,0,0,454.88,274.79Z"/><path class="cls-1" d="M290.28,326.5c-14.61,7.33-21.1,24.08-14.45,37.34s23.95,18.07,38.56,10.74,21.11-24.07,14.46-37.33S304.9,319.17,290.28,326.5Zm18.87,37.63c-8.85,4.43-19.11,1.95-22.86-5.54s.39-17.19,9.24-21.63,19.1-2,22.86,5.53S318,359.69,309.15,364.13Z"/><path class="cls-1" d="M11.27,311.09c59.62,18.75,119,8.61,165.91-27.21,46.94,6.83,120.59-49.74,123.76-52.19a7.63,7.63,0,0,0-1.38-12.9c-22.73-10.88-47.84-24-57.14-30.23,6.93-17.1,12-33.1,14.2-44.54,37.43,9.78,68.15-18.65,69.54-20a7.63,7.63,0,0,0,.31-10.78c-30.32-32.12-56.74-37.67-71-37.8.69-14.26-3.33-41-33.65-73.08A7.63,7.63,0,0,0,211,2.08c-1.39,1.32-31.55,30.35-23.94,68.28-15.34,2-39,8.64-62.76,18-2-9.77-9.32-21.42-22.63-35.52a7.61,7.61,0,0,0-10.78-.31c-1.65,1.55-39,37.47-37,77.22C7,175.78-10.5,239.6,6.17,305.68A7.64,7.64,0,0,0,11.27,311.09ZM281.57,227c-21.17,14.89-58,37.13-86.51,41.57,15.35-15.67,30-40.88,41.29-65.85C248,210.15,267.82,220.24,281.57,227ZM96,69.32c13.82,16.12,14,23.42,13.74,25.17-14.38,6.4-28.17,13.72-39.54,21.59C74.25,96.27,88.16,78.16,96,69.32Zm14.58,24.76v0l-.06,0S110.55,94.11,110.59,94.08ZM66.87,138.16c32.4-30.59,110.48-54,129.77-53.22a7.58,7.58,0,0,0,5.54-2.07,8.43,8.43,0,0,0,.92-1.05,7.61,7.61,0,0,0,1-7.1C195.21,50.3,208.33,29,216.26,19c31.06,36.38,23.38,61.18,23,62.43a7.66,7.66,0,0,0,9.3,9.86c1.12-.3,26.36-6.69,61,26.49-10.4,7.29-32.6,19.16-56.27,9a7.62,7.62,0,0,0-10.63,6.87c-.34,19.3-28.2,95.9-60.6,126.49C138.24,301.45,79.39,315.06,20,297.79,6.12,237.45,23.1,179.48,66.87,138.16Z"/><path class="cls-1" d="M107.81,214.84c24.08,25.51,28.77,50.64,28.82,50.9a7.62,7.62,0,0,0,15-2.59c-.2-1.2-5.31-29.71-32.75-58.77S63.3,168.57,62.11,168.3a7.58,7.58,0,0,0-7,1.89A7.5,7.5,0,0,0,53,174a7.6,7.6,0,0,0,5.72,9.13C58.93,183.21,83.51,189.1,107.81,214.84Z"/><path class="cls-1" d="M167.62,251a7.63,7.63,0,0,0,6.21-8.78c-.2-1.21-5.32-29.72-32.75-58.78A139.14,139.14,0,0,0,101.67,154a7.63,7.63,0,0,0-8.59,1.31,7.53,7.53,0,0,0-1.61,2.18A7.62,7.62,0,0,0,95,167.72a123.93,123.93,0,0,1,35,26.19c24.08,25.51,28.77,50.64,28.81,50.89A7.65,7.65,0,0,0,167.62,251Z"/><circle class="cls-1" cx="90.25" cy="262.88" r="15.25" transform="translate(-159.45 140.81) rotate(-45)"/></g></g></svg>