<svg xmlns="http://www.w3.org/2000/svg" viewBox="0 0 480.09 512"><defs><style>.cls-1{fill:#595959;}</style></defs><title>Noodle</title><g id="Layer_2" data-name="Layer 2"><g id="Layer_1-2" data-name="Layer 1"><path class="cls-1" d="M477,262a12.12,12.12,0,0,0-9-4H453.85a91.38,91.38,0,0,0-18.6-48.49,7.51,7.51,0,1,0-11.93,9.11A76.38,76.38,0,0,1,438.77,258H424.61A63.24,63.24,0,0,0,322.7,215.82a94.07,94.07,0,0,0-8.49-11.24,78.52,78.52,0,0,1,7.15-5l.09,0a76.48,76.48,0,0,1,9.31-4.88l.92-.4c.8-.34,1.61-.66,2.41-1l1.59-.59,1.22-.43c.83-.28,1.67-.55,2.5-.8.38-.11.75-.23,1.13-.33.86-.25,1.72-.48,2.59-.7l1.15-.27,2-.43,1.84-.35,1.69-.28c.52-.09,1-.16,1.56-.23a77.2,77.2,0,0,1,47.84,8.9,7.5,7.5,0,1,0,7.27-13.13,92.43,92.43,0,0,0-38.86-11.31L456.32,50.64A14.07,14.07,0,0,0,453,30.88h0L441.82,23a14.06,14.06,0,0,0-19.71,3.59l-109.86,161a91.82,91.82,0,0,0-8.9,6.48l-.32-.25L385.83,26.2a14.08,14.08,0,0,0-6.56-18.94L366.94,1.38A14.08,14.08,0,0,0,348.09,8.2L271.52,174.47a92.34,92.34,0,0,0-179.95,2.67A92.57,92.57,0,0,0,26.25,258H12.1a12.1,12.1,0,0,0-12,13.3c4.81,48.13,25.85,137,112.62,193v23.8A23.85,23.85,0,0,0,136.51,512H343.67a23.85,23.85,0,0,0,23.82-23.82V464.32c43.39-28.05,75.14-67.28,94.39-116.64,2.4-6.16,4.62-12.52,6.59-18.92,1.59-5.16,3.06-10.46,4.37-15.74A297.65,297.65,0,0,0,480,271.34,12.14,12.14,0,0,0,477,262ZM434,35.84l9.64,6.77L348.52,174.14c-.43.06-.86.15-1.3.22l-2,.32-1.72.33c-1,.2-2,.42-3,.65l-1.44.36-.93.23ZM361.8,217.27A48.35,48.35,0,0,1,409.48,258H395.1a34.12,34.12,0,0,0-60.23-13.45,91.15,91.15,0,0,0-5-15.24A48.46,48.46,0,0,1,361.8,217.27ZM379.4,258H344.19a19.13,19.13,0,0,1,35.21,0ZM361.33,15.33,372,20.4,290.53,185.27q-2.94-1.68-6-3.14ZM272.23,193.2c.6.22,1.2.45,1.79.69l1,.41c.95.4,1.89.82,2.82,1.25l1.23.59,1.43.73,1.49.8,1.56.87c.65.38,1.3.76,1.94,1.16l1.08.68c.55.35,1.09.71,1.63,1.08l.94.64a77.93,77.93,0,0,1,26.29,31.58l.12.27a76.72,76.72,0,0,1,6.37,24V258H307.71a63.26,63.26,0,0,0-108.25-36.53,91.56,91.56,0,0,0-7.8-12.06,77.22,77.22,0,0,1,80.57-16.25Zm-27.34,38.2A34.2,34.2,0,0,0,211.59,258h-1.24c0-.06,0-.11,0-.17-.08-.94-.17-1.88-.28-2.81,0-.26-.05-.52-.09-.78-.12-1-.26-2.05-.42-3.07,0-.23-.08-.46-.11-.68-.13-.76-.27-1.52-.41-2.28a.52.52,0,0,0,0-.11,2.33,2.33,0,0,1-.05-.28c0-.22-.09-.44-.13-.66q-.31-1.51-.66-3l-.2-.8c-.13-.54-.27-1.07-.41-1.61v0l-.31-1.15c0-.13-.07-.26-.11-.39-.15-.52-.31-1-.46-1.55a.14.14,0,0,1,0-.07c-.13-.41-.26-.83-.4-1.25l-.15-.49A48.25,48.25,0,0,1,292.57,258H278.2A34.2,34.2,0,0,0,244.89,231.4ZM262.5,258H227.29a19.13,19.13,0,0,1,35.21,0Zm-80.66-80.63a19.19,19.19,0,0,1,16,8.69,92.23,92.23,0,0,0-16.28,12.24,93.35,93.35,0,0,0-15.88-12A19.17,19.17,0,0,1,181.84,177.41Zm-29.64,2.22a92.12,92.12,0,0,0-13.73-4.22,48.24,48.24,0,0,1,86.71-.08,92.57,92.57,0,0,0-13.77,4.16,34.13,34.13,0,0,0-59.21.14Zm-20.8-41.71a77.34,77.34,0,0,1,124.38,35.91,93.08,93.08,0,0,0-10.88-.64c-1.42,0-2.83,0-4.23.1a63.25,63.25,0,0,0-117.65,0c-1.57-.07-3.14-.11-4.72-.11a93.47,93.47,0,0,0-10.37.58A77.53,77.53,0,0,1,131.4,137.92Zm-13.1,50.27A77.45,77.45,0,0,1,188,231.94l.3.65q.6,1.28,1.17,2.58c.18.44.36.87.53,1.31.27.66.54,1.32.79,2s.4,1.11.59,1.67.4,1.13.58,1.71.39,1.24.58,1.87l.45,1.58c.18.66.34,1.32.5,2s.25,1,.37,1.57.28,1.33.41,2,.2,1.09.3,1.64.22,1.3.31,2,.16,1.22.23,1.83.15,1.17.21,1.76H181.11a63.25,63.25,0,0,0-125.62,0H41.32A77.45,77.45,0,0,1,118.3,188.19Zm0,43.21A34.19,34.19,0,0,0,85,258H70.62A48.27,48.27,0,0,1,166,258H151.6A34.19,34.19,0,0,0,118.3,231.4ZM135.9,258H100.7a19.13,19.13,0,0,1,35.2,0Zm322.37,51.38c-1.23,5-2.63,10-4.13,14.91-1.87,6.06-4,12.08-6.24,17.9-18.28,46.86-48.52,84-89.88,110.35a1.92,1.92,0,0,1-.26.1,1.13,1.13,0,0,1-.37.07H179.54a7.5,7.5,0,1,0,0,15h173v20.43a8.83,8.83,0,0,1-8.82,8.82H136.51a8.83,8.83,0,0,1-8.82-8.82V467.75h16.94a7.5,7.5,0,0,0,0-15H122.7a1.23,1.23,0,0,1-.36-.06.66.66,0,0,1-.25-.11C41.43,401.18,20.5,319.36,15.33,273H464.77A282.78,282.78,0,0,1,458.27,309.42Z"/></g></g></svg>