<svg xmlns="http://www.w3.org/2000/svg" viewBox="0 0 409.5 409.74"><defs><style>.cls-1{fill:#595959;}</style></defs><title>Produce</title><g id="Layer_2" data-name="Layer 2"><g id="Capa_1" data-name="Capa 1"><path class="cls-1" d="M266.3,100.62A5.11,5.11,0,0,0,259.25,99a61.09,61.09,0,0,0-27.61,43.65,5.11,5.11,0,0,0,4.42,5.73,4.87,4.87,0,0,0,.66,0,5.11,5.11,0,0,0,5.07-4.46,50.73,50.73,0,0,1,22.89-36.28A5.12,5.12,0,0,0,266.3,100.62Z"/><path class="cls-1" d="M380.78,191.46c-7.36-9.47-11-21.77-10.16-34.64.12-2,.19-4,.19-6,0-33.55-15.76-62.12-41.3-78.38,8.51-.58,17.3-2.66,25.07-7.47C380.25,49.07,385.12,12,385.3,10.43A5.11,5.11,0,0,0,381.93,5c-1.49-.53-36.84-12.72-62.49,3.15A54.23,54.23,0,0,0,304,23l.23-2.18a4.58,4.58,0,0,0,0-.53,20.16,20.16,0,0,0-40.32,0,4.68,4.68,0,0,0,0,.64L269,60.18c-36.61,7.06-65.6,39-70.67,78.12a97.53,97.53,0,0,0-.74,16.18c.54,14-4.06,28.53-12.93,40.85a135.13,135.13,0,0,0-9.78,15.87c-19.13-4-38.42.68-54.82,13.1V199.75c9.88.88,33.67,1.28,47.92-13,17.93-17.93,12.67-51,12.44-52.38a5.12,5.12,0,0,0-4.21-4.21c-1.4-.23-34.45-5.49-52.38,12.44-9.31,9.31-12.37,22.5-13.42,34.61a110.53,110.53,0,0,0-10.23-19.31,5.12,5.12,0,0,0-8.5,5.72c14.89,22.14,17.94,49.65,18.14,51.55v9.11c-18-13.62-39.47-17.94-60.39-11.73C7.75,224.94-10.18,271.13,5.78,324.91c17,57.12,62.49,94.21,101.49,82.63a51.91,51.91,0,0,0,7.62-3,52.72,52.72,0,0,0,7.63,3,51.64,51.64,0,0,0,14.67,2.12c21.81,0,44.27-13.39,61.73-35.53,23.18,22.87,53.81,35.61,85.44,35.61,2.61,0,5.23-.08,7.85-.26,61-4.07,111.21-55.92,116.75-120.6C412,253.34,402,218.74,380.78,191.46ZM131,149.85c11.12-11.12,31.32-10.72,39.68-10,.73,8.36,1.15,28.52-10,39.68-11.57,11.57-33,10.68-40.63,9.92C120.24,176.69,121.27,159.61,131,149.85Zm193.81-133c16.86-10.43,40.19-5.9,49.56-3.42-2,9.49-8.33,32.39-25.19,42.82-16.65,10.31-40.45,5.09-50.34,2.21C303.35,44.28,310.28,25.82,324.83,16.83Zm-40.69-6.44a9.94,9.94,0,0,1,9.92,9.68l-3.12,29.74c-1.06,3.09-2,6-2.87,8.82a72.2,72.2,0,0,0-9,0L274.23,20A9.92,9.92,0,0,1,284.14,10.39ZM125.44,397.72a41.55,41.55,0,0,1-8.09-3.38,5.1,5.1,0,0,0-4.91,0,41.3,41.3,0,0,1-8.09,3.38c-33.57,10-73.39-24-88.75-75.75-14.47-48.76.28-88.79,36.7-99.6,20.69-6.13,42.19,0,59,16.75a5.13,5.13,0,0,0,7.25,0c16.77-16.79,38.28-22.88,59-16.75,36.42,10.81,51.17,50.84,36.7,99.6C198.83,373.71,159,407.68,125.44,397.72ZM398.75,288c-5.11,59.69-51.2,107.52-107.21,111.26-32.43,2.15-63.11-9.75-86.55-33.52a150.91,150.91,0,0,0,19-40.86c15.37-51.77-.74-96.42-39.1-110.71a124.89,124.89,0,0,1,8-12.87c10.19-14.16,15.47-30.92,14.85-47.22a86.75,86.75,0,0,1,.66-14.48c4.55-35.12,30.61-63.73,63.79-69.68a59.16,59.16,0,0,1,24.14,0c38.4,7.71,64.2,40.19,64.2,80.83,0,1.81-.06,3.61-.17,5.39a61.32,61.32,0,0,0,12.29,41.56C392.32,223,401.58,255,398.75,288Z"/><path class="cls-1" d="M66.23,247a5.12,5.12,0,0,0-6.35-3.48,36.24,36.24,0,0,0-22.14,17.88c-6.21,11.45-7,26.55-2.14,42.51a5.12,5.12,0,0,0,4.9,3.65,5.06,5.06,0,0,0,1.48-.22,5.12,5.12,0,0,0,3.42-6.39c-4-13.33-3.55-25.65,1.34-34.67a26.21,26.21,0,0,1,16-12.93A5.13,5.13,0,0,0,66.23,247Z"/></g></g></svg>