<svg xmlns="http://www.w3.org/2000/svg" viewBox="0 0 324.67 512"><defs><style>.cls-1{fill:#595959;}</style></defs><title>Refrigerated</title><g id="Layer_2" data-name="Layer 2"><g id="Capa_1" data-name="Capa 1"><path class="cls-1" d="M303.25,0H21.42C9.61,0,0,8.56,0,19.09v99.58c0,4.14,3.77,7.5,8.42,7.5s8.41-3.36,8.41-7.5V85h211.9c4.65,0,8.42-3.35,8.42-7.5s-3.77-7.5-8.42-7.5H16.83V19.09A4.37,4.37,0,0,1,21.42,15H303.25a4.37,4.37,0,0,1,4.59,4.09V70H262.39c-4.64,0-8.41,3.36-8.41,7.5s3.77,7.5,8.41,7.5h45.45V333.17c0,4.14,3.77,7.5,8.41,7.5s8.42-3.36,8.42-7.5V19.09C324.67,8.56,315.06,0,303.25,0Z"/><path class="cls-1" d="M316.25,355.67c-4.64,0-8.41,3.35-8.41,7.5v27.57h-291V331.85H41.46c17.31,0,31.4-12.55,31.4-28V255.49c0-15.43-14.09-28-31.4-28H16.83V148.67c0-4.15-3.77-7.5-8.41-7.5S0,144.52,0,148.67V476c0,10.53,9.61,19.1,21.42,19.1H38.33v9.4c0,4.14,3.77,7.5,8.42,7.5s8.41-3.36,8.41-7.5v-9.4H269.51v9.4c0,4.14,3.76,7.5,8.41,7.5s8.42-3.36,8.42-7.5v-9.4h16.91c11.81,0,21.42-8.57,21.42-19.1V363.17C324.67,359,320.9,355.67,316.25,355.67ZM16.83,242.51H41.46c8,0,14.56,5.82,14.56,13v48.38c0,7.16-6.53,13-14.56,13H16.83ZM307.84,476a4.37,4.37,0,0,1-4.59,4.1H21.42a4.37,4.37,0,0,1-4.59-4.1V405.74h291V476Z"/><path class="cls-1" d="M265.85,421.08h-207c-4.65,0-8.42,3.36-8.42,7.5s3.77,7.5,8.42,7.5h207c4.65,0,8.42-3.35,8.42-7.5S270.5,421.08,265.85,421.08Z"/><path class="cls-1" d="M265.85,449.75h-207c-4.65,0-8.42,3.36-8.42,7.5s3.77,7.5,8.42,7.5h207c4.65,0,8.42-3.35,8.42-7.5S270.5,449.75,265.85,449.75Z"/><path class="cls-1" d="M217.44,187.89l-14.26,5.93-24.49-12.6,24.49-12.6,14.26,5.92a9.22,9.22,0,0,0,3.55.71,8.56,8.56,0,0,0,7.63-4.33c2-3.76.14-8.22-4.07-10l-12.89-5.36L212.9,143c.41-4.12-3-7.76-7.65-8.12s-8.71,2.69-9.12,6.82l-1.37,14-24.49,12.61V144l12.89-8a7,7,0,0,0,2.07-10.44,9.09,9.09,0,0,0-11.72-1.85l-11.65,7.27-11.65-7.27a9.08,9.08,0,0,0-11.72,1.85A7,7,0,0,0,140.55,136l12.89,8v24.22L129.9,156.11l-1.37-14c-.4-4.13-4.49-7.19-9.11-6.82s-8.06,4-7.65,8.12L113,156.08l-12.89,5.36c-4.21,1.75-6,6.21-4.06,10a8.54,8.54,0,0,0,7.63,4.34,9.22,9.22,0,0,0,3.55-.71l14.26-5.93L145,181.22l-23.54,12.11-14.26-5.93C103,185.65,98,187.27,96.05,191s-.15,8.21,4.07,10L113,206.35,111.77,219c-.41,4.13,3,7.77,7.65,8.13.25,0,.49,0,.74,0,4.32,0,8-2.94,8.37-6.84l1.37-14,23.54-12.11v25.2l-12.89,8a7,7,0,0,0-2.06,10.44,9.08,9.08,0,0,0,11.72,1.85l11.65-7.27,11.65,7.27a9.15,9.15,0,0,0,4.82,1.35,8.74,8.74,0,0,0,6.9-3.2,7,7,0,0,0-2.07-10.44l-12.89-8v-25.2l24.49,12.6,1.37,14c.39,3.91,4.06,6.85,8.38,6.85l.74,0c4.63-.36,8.06-4,7.65-8.12l-1.24-12.63,12.89-5.36c4.21-1.75,6-6.21,4.07-10S221.65,186.14,217.44,187.89Z"/><path class="cls-1" d="M36.43,254.28c-4.65,0-8.42,3.36-8.42,7.5v35.8c0,4.14,3.77,7.5,8.42,7.5s8.41-3.36,8.41-7.5v-35.8C44.84,257.64,41.08,254.28,36.43,254.28Z"/></g></g></svg>