<svg xmlns="http://www.w3.org/2000/svg" viewBox="0 0 410.79 503"><defs><style>.cls-1{fill:#595959;}</style></defs><title>Sauce &amp;amp; Paste</title><g id="Layer_2" data-name="Layer 2"><g id="Layer_1-2" data-name="Layer 1"><g id="outline"><path class="cls-1" d="M0,201.2V477.85A25.15,25.15,0,0,0,25.15,503H142.52a25.15,25.15,0,0,0,25.15-25.15V201.2a42,42,0,0,0-33.54-41.08v-17.6h8.39a8.39,8.39,0,0,0,8.38-8.39v-33a25.14,25.14,0,0,0-24.62-25.66h-9.75L109,7.46A8.37,8.37,0,0,0,100.6,0H67.07a8.38,8.38,0,0,0-8.34,7.46l-7.54,68H42.44a25.15,25.15,0,0,0-25.67,24.62v34.06a8.39,8.39,0,0,0,8.38,8.39h8.38v17.6A42,42,0,0,0,0,201.2ZM74.61,16.77H93.05l6.54,58.68H68.05ZM33.53,100.6a8.47,8.47,0,0,1,8.54-8.39h83.68a8.46,8.46,0,0,1,8.39,8.54c0,.12,0,.24,0,.36v24.63H33.53Zm83.84,41.92v16.76H50.3V142.52ZM41.92,176.05h83.83A25.15,25.15,0,0,1,150.9,201.2V477.85a8.38,8.38,0,0,1-8.38,8.38H25.15a8.38,8.38,0,0,1-8.38-8.38V201.2A25.15,25.15,0,0,1,41.92,176.05Z"/><path class="cls-1" d="M117.37,452.7h16.76v16.77H117.37Z"/><path class="cls-1" d="M117.37,419.17h16.76v16.76H117.37Z"/><path class="cls-1" d="M83.83,310.18a50.3,50.3,0,1,0-50.3-50.3A50.3,50.3,0,0,0,83.83,310.18Zm0-83.83A33.54,33.54,0,1,1,50.3,259.88,33.54,33.54,0,0,1,83.83,226.35Z"/><path class="cls-1" d="M268.27,209.58a42,42,0,0,0-41.92,41.92V479.16A23.86,23.86,0,0,0,250.19,503H386.94a24.86,24.86,0,0,0,23.84-25.15V251.5a42,42,0,0,0-41.91-41.92h-8.39V50.3h8.39a8.38,8.38,0,0,0,8.38-8.38V25.15A25.15,25.15,0,0,0,352.1,0H285a25.15,25.15,0,0,0-25.15,25.15V41.92a8.39,8.39,0,0,0,8.39,8.38h8.38V209.58ZM243.12,301.8H360.48v109H243.12ZM276.65,25.15A8.38,8.38,0,0,1,285,16.77H352.1a8.38,8.38,0,0,1,8.38,8.38v8.38H276.65ZM285,226.35a8.39,8.39,0,0,0,8.39-8.38V50.3h50.3V83.83H318.57a8.39,8.39,0,0,0-8.39,8.39v92.21a8.39,8.39,0,0,0,8.39,8.39h25.15V218a8.38,8.38,0,0,0,8.38,8.38h16.77A25.15,25.15,0,0,1,394,251.5V477.85a8.39,8.39,0,0,1-7.08,8.38H250.19a7.08,7.08,0,0,1-7.07-7.07V427.55H368.87a8.38,8.38,0,0,0,8.38-8.38V293.42a8.39,8.39,0,0,0-8.38-8.39H243.12V251.5a25.15,25.15,0,0,1,25.15-25.15ZM343.72,100.6v75.45H327V100.6Z"/><path class="cls-1" d="M259.88,318.57h83.84v16.76H259.88Z"/><path class="cls-1" d="M327,377.25h16.77V394H327Z"/></g></g></g></svg>