<svg xmlns="http://www.w3.org/2000/svg" viewBox="0 0 345 512"><defs><style>.cls-1{fill:#595959;}</style></defs><title>Seasoning &amp;amp; Spices</title><g id="Layer_2" data-name="Layer 2"><g id="Capa_1" data-name="Capa 1"><circle class="cls-1" cx="232.5" cy="277.5" r="7.5"/><circle class="cls-1" cx="112.5" cy="444.5" r="7.5"/><circle class="cls-1" cx="82.5" cy="414.5" r="7.5"/><path class="cls-1" d="M344.35,451.28,299.54,166.63A37.24,37.24,0,0,0,270,135.75v-17a22.48,22.48,0,0,0,9.25-36.21,22.48,22.48,0,0,0-9.63-36.35A52.58,52.58,0,0,0,217.5,0h-90A52.58,52.58,0,0,0,75.38,46.15,22.48,22.48,0,0,0,65.75,82.5,22.48,22.48,0,0,0,75,118.71v17a37.26,37.26,0,0,0-29.54,30.89L.65,451.28A52.49,52.49,0,0,0,52.5,512h240a52.49,52.49,0,0,0,51.85-60.72ZM82.5,60A7.5,7.5,0,0,0,90,52.5a37.57,37.57,0,0,1,30-36.75V22.5a7.5,7.5,0,0,0,15,0V15h30v7.5a7.5,7.5,0,0,0,15,0V15h30v7.5a7.5,7.5,0,0,0,15,0V15.76A37.62,37.62,0,0,1,254.25,45H112.5a7.5,7.5,0,0,0,0,15h150a7.5,7.5,0,0,1,0,15H82.5a7.5,7.5,0,0,1,0-15Zm0,30h180a7.5,7.5,0,0,1,0,15H82.5a7.5,7.5,0,0,1,0-15Zm210,407H52.5A37.54,37.54,0,0,1,15,459.5a38.86,38.86,0,0,1,.46-5.89L60.28,169A22.37,22.37,0,0,1,82.5,150a7.5,7.5,0,0,0,7.5-7.5V120H255v15H112.5a7.5,7.5,0,0,0,0,15h150a22.37,22.37,0,0,1,22.22,19l44.82,284.65a38.86,38.86,0,0,1,.46,5.89A37.54,37.54,0,0,1,292.5,497Z"/><path class="cls-1" d="M289.36,294.9a118.31,118.31,0,0,0-233.73,0l-25.35,161A22.52,22.52,0,0,0,52.5,482h240a22.52,22.52,0,0,0,22.22-26.06ZM292.5,467H52.5a7.5,7.5,0,0,1-7.5-7.5,7.34,7.34,0,0,1,.1-1.22l25.35-161a103.31,103.31,0,0,1,204.1,0l25.35,161a7.26,7.26,0,0,1,.1,1.22,7.5,7.5,0,0,1-7.5,7.5Z"/></g></g></svg>