<svg xmlns="http://www.w3.org/2000/svg" viewBox="0 0 512 480"><defs><style>.cls-1{fill:#595959;}</style></defs><title>Seaweed</title><g id="Layer_2" data-name="Layer 2"><g id="Capa_1" data-name="Capa 1"><path class="cls-1" d="M376,0a10,10,0,1,0,10,10A10,10,0,0,0,376,0Z"/><path class="cls-1" d="M502,460H445.68A24.67,24.67,0,0,0,449,447.57V424.14a6,6,0,0,1,6.28-6.14h30.15A26.81,26.81,0,0,0,512,391a105.87,105.87,0,0,0-31.21-75.36c-16.92-16.92-45.36-4.6-45.36,18.79a6.58,6.58,0,0,1-6.57,6.57H398.71a26.54,26.54,0,0,0-9.54,1.8l-3.07-8.46a6.56,6.56,0,0,1,3.92-8.42l22-8a26.56,26.56,0,0,0,15.88-34.06l-8-22a6.55,6.55,0,0,1,3.92-8.41c22.26-8.11,23.59-39.05,2.14-49.05a105.88,105.88,0,0,0-81.48-3.56,26.56,26.56,0,0,0-15.88,34.06l8,22a6.56,6.56,0,0,1-3.93,8.42l-13.57,4.94a26.48,26.48,0,0,0-7.77-19l-16.56-16.56a6.58,6.58,0,0,1,0-9.3l16.56-16.56a26.6,26.6,0,0,0,0-37.58A105.84,105.84,0,0,0,236,140c-23.89,0-35.35,28.79-18.79,45.35a6.59,6.59,0,0,1,0,9.3l-16.56,16.56a26.57,26.57,0,0,0,0,37.58l16.56,16.56a6.59,6.59,0,0,1,0,9.3l-6.16,6.16a26.62,26.62,0,0,0-10.88-7.49l-22-8a6.5,6.5,0,0,1-3.71-3.4,6.57,6.57,0,0,1-.23-5l8-22a26.56,26.56,0,0,0-15.88-34.06,105.91,105.91,0,0,0-81.49,3.56c-21.44,10-20.12,40.94,2.15,49.05a6.56,6.56,0,0,1,3.92,8.41l-8,22a26.56,26.56,0,0,0,15.88,34.06l22,8a6.58,6.58,0,0,1,3.92,8.42l-3.07,8.45a26.7,26.7,0,0,0-9.54-1.79h-29a6.57,6.57,0,0,1-6.57-6.57c0-23.44-28.47-35.68-45.36-18.79A107.83,107.83,0,0,0,0,391.43,26.6,26.6,0,0,0,26.57,418h29A6.08,6.08,0,0,1,62,424.14v23.43A26,26,0,0,0,65.15,460H10a10,10,0,0,0,0,20H502a10,10,0,0,0,0-20Zm-373.21,0a26.36,26.36,0,0,0-16.65-6H88.71A6.59,6.59,0,0,1,82,447.57V424.14A26,26,0,0,0,55.57,398h-29A6.58,6.58,0,0,1,20,391.43a87.69,87.69,0,0,1,25.35-61.64,6.57,6.57,0,0,1,11.22,4.65A26.6,26.6,0,0,0,83.14,361l29-.1a7.1,7.1,0,0,1,5.19,2.45,10.19,10.19,0,0,0,1.22,2,6,6,0,0,1,.45,2.25V391c0,14.88,11.79,27,26.28,27h23.43a6,6,0,0,1,6.29,6.14v23.43A26,26,0,0,0,178.16,460Zm96.49-6H201.84a6.73,6.73,0,0,1-6.84-6.43V424.14A25.94,25.94,0,0,0,168.71,398H145.28c-3.4,0-6.28-3.2-6.28-7V367.57a26.11,26.11,0,0,0-1.69-9.23l6.24-17.15a26.61,26.61,0,0,0-15.88-34.06l-22-8a6.57,6.57,0,0,1-3.92-8.42l8-22a26.56,26.56,0,0,0-15.88-34.05,6.57,6.57,0,0,1-.54-12.13,86,86,0,0,1,66.2-2.88,6.59,6.59,0,0,1,3.94,8.42l-8,22a26.6,26.6,0,0,0,15.89,34.06l22,8a6.57,6.57,0,0,1,3.75,3.52,26.65,26.65,0,0,0,3.57,33.15l16.56,16.56a6.57,6.57,0,0,1,0,9.3l-16.56,16.56a26.6,26.6,0,0,0,0,37.58L226.89,435a26.32,26.32,0,0,0,.29,17.36l.63,1.74C227,454.05,226.13,454,225.28,454Zm14.6-34.26-25.09-25.09a6.59,6.59,0,0,1,0-9.3l16.56-16.56a26.6,26.6,0,0,0,0-37.58l-16.56-16.56a6.6,6.6,0,0,1,0-9.3l16.56-16.56a26.6,26.6,0,0,0,0-37.58c-15.21-16-18.48-16.53-18.48-21.21a6.53,6.53,0,0,1,1.92-4.65l16.56-16.56a26.6,26.6,0,0,0,0-37.58A6.56,6.56,0,0,1,236,160a86,86,0,0,1,61.21,25.35,6.58,6.58,0,0,1,0,9.3l-16.56,16.56a26.6,26.6,0,0,0,0,37.58l16.56,16.56a6.59,6.59,0,0,1,0,9.3l-16.56,16.56a26.6,26.6,0,0,0,0,37.58l11.48,11.48-15.26,5.56A26.57,26.57,0,0,0,261,379.88l8,22a6.57,6.57,0,0,1-3.92,8.42l-22,8A26,26,0,0,0,239.88,419.74ZM299,318.82l-4.17-4.17a6.57,6.57,0,0,1-.48-8.75C294.76,307.39,294.68,307,299,318.82Zm34.53,94.87,8,22a6.57,6.57,0,0,1-3.93,8.42l-22,8A26.44,26.44,0,0,0,304.35,460H251.23L246,445.54a6.57,6.57,0,0,1,3.94-8.42l22-8a26.62,26.62,0,0,0,15.88-34.06l-8-22a6.58,6.58,0,0,1,3.94-8.41l22-8a26.42,26.42,0,0,0,9-5.52l.12-.12.26-.26a26.56,26.56,0,0,0,6.48-28.15l-8-22a6.58,6.58,0,0,1,3.93-8.43l22-8a26.57,26.57,0,0,0,15.89-34.06l-8-22a6.56,6.56,0,0,1,3.93-8.42,86,86,0,0,1,66.19,2.88,6.57,6.57,0,0,1-.53,12.13,26.55,26.55,0,0,0-15.88,34.05l8,22a6.58,6.58,0,0,1-3.92,8.42l-22,8a26.56,26.56,0,0,0-15.88,34.06l7,19.14a10,10,0,0,0,1.39,4.31,6.55,6.55,0,0,1-4.27,7l-22,8A26.57,26.57,0,0,0,333.49,413.69ZM429,424.14v23.43c0,3.73-3.56,5.43-6.86,5.43H398.71c-5.92,0-11.76,2.46-16.84,7H350.19a26.57,26.57,0,0,0,10.11-31.13l-8-22a6.56,6.56,0,0,1,3.92-8.41l22-8a26.56,26.56,0,0,0,17.24-28.56,6.62,6.62,0,0,1,3.24-.95h30.15a26.52,26.52,0,0,0,26.57-26.47,6.57,6.57,0,0,1,11.22-4.65A86,86,0,0,1,492,391c0,3.72-3.07,7-6.57,7H455.28A25.93,25.93,0,0,0,429,424.14Z"/><path class="cls-1" d="M306,20a40,40,0,1,0,40,40A40,40,0,0,0,306,20Zm0,60a20,20,0,1,1,20-20A20,20,0,0,1,306,80Z"/><path class="cls-1" d="M356,120a30,30,0,1,0,30,30A30,30,0,0,0,356,120Zm0,40a10,10,0,1,1,10-10A10,10,0,0,1,356,160Z"/></g></g></svg>