<svg xmlns="http://www.w3.org/2000/svg" viewBox="0 0 512 483"><defs><style>.cls-1{fill:#595959;}</style></defs><title>Snack &amp;amp; Candy</title><g id="Layer_2" data-name="Layer 2"><g id="Layer_1-2" data-name="Layer 1"><path class="cls-1" d="M132.14,297.35c1.94.15,3.91.22,5.88.22,17.53,0,36.35-5.59,53.64-16,19.24-11.6,34.47-27.9,42.86-45.91,8.87-19,9.19-37.77.89-52.77s-24-24.08-44.21-25.57c-19.13-1.42-40.27,4.19-59.52,15.79S97.22,201,88.82,219c-8.87,19-9.18,37.77-.89,52.77S111.92,295.86,132.14,297.35Zm-29.83-71.49c7.1-15.22,20.19-29.14,36.87-39.2,15-9.06,31.2-13.92,46.09-13.92,1.64,0,3.27.06,4.87.18,15.09,1.12,26.56,7.43,32.28,17.78s5.23,23.88-1.39,38.08c-7.1,15.23-20.19,29.15-36.87,39.21s-34.77,14.93-51,13.74c-15.09-1.12-26.56-7.43-32.28-17.78S95.69,240.07,102.31,225.86Z"/><path class="cls-1" d="M505.05,237.07a27.94,27.94,0,0,0-13.82-8.9,30.17,30.17,0,0,0-7.38-27.83,27.31,27.31,0,0,0-26.65-7.72,29.63,29.63,0,0,0-8.55-14.43,27.47,27.47,0,0,0-37-.18,6.68,6.68,0,0,0-.74.67c-.27.29-.54.57-.8.88a29.11,29.11,0,0,0-6,9.31c-5.26,10.93-9.19,27.74-11.7,50.07a76.6,76.6,0,0,0-19.24-.55,7.57,7.57,0,0,0-1.06,0,94.31,94.31,0,0,0-35,11.17l-.43.25a114.09,114.09,0,0,0-27.65,21.3,120.62,120.62,0,0,0-11.6,14.11c-3.79-14.85-6.71-32.71-6.71-57.93,0-39,6.76-59.83,13.91-81.89,7-21.49,14.19-43.71,14.19-82.39V24.94a14.11,14.11,0,0,0-7-12.27,12.91,12.91,0,0,0-13.15.15l-16-10.65a13,13,0,0,0-14.37,0l-16,10.63-16-10.63a12.94,12.94,0,0,0-14.37,0l-16,10.63-16-10.63a13,13,0,0,0-14.39,0l-16,10.63-16-10.63a12.93,12.93,0,0,0-14.38,0L113,12.81,97,2.18a13,13,0,0,0-14.39,0l-16,10.63-16-10.63a12.93,12.93,0,0,0-14.38,0l-16,10.64A12.9,12.9,0,0,0,7,12.66,14.1,14.1,0,0,0,0,24.93V63.06C0,101.75,7.21,124,14.19,145.47c1.44,4.43,2.92,9,4.31,13.63a7.45,7.45,0,0,0,9.41,5.13,7.89,7.89,0,0,0,4.91-9.81c-1.44-4.8-3-9.47-4.42-14C22,120.81,16,102.17,15.11,70.89H303.78c-.87,31.26-6.92,49.89-13.29,69.53-7.23,22.28-14.71,45.33-14.71,86.91,0,35.5,5.43,57.31,11.27,76.14-8.3,18.08-11.33,37.28-8.8,54.7-21.42,2.64-37.53,6.74-48,12.22a27.78,27.78,0,0,0-9,6.27l-.65.63a7.53,7.53,0,0,0-.86,1,28.77,28.77,0,0,0-3.53,5.46H15.11C16,352.5,22,333.87,28.39,314.23c7.24-22.28,14.72-45.32,14.72-86.9a268.65,268.65,0,0,0-2.69-39.46,7.55,7.55,0,0,0-8.56-6.55,7.79,7.79,0,0,0-6.27,8.93,253.07,253.07,0,0,1,2.51,37.08c0,39-6.76,59.82-13.92,81.88C7.21,330.7,0,352.92,0,391.59v38.13A14.11,14.11,0,0,0,6.94,442a12.92,12.92,0,0,0,13.17-.15l16,10.64a13,13,0,0,0,14.39,0l16-10.64,16,10.63a13,13,0,0,0,14.38,0l16-10.64,16,10.63a13,13,0,0,0,14.38,0l16.05-10.64,16,10.63a13,13,0,0,0,14.38,0l16-10.64,16,10.63a12.94,12.94,0,0,0,14.37,0l2.58-1.71a27.75,27.75,0,0,0,2.38,2.84,27.3,27.3,0,0,0,26.66,7.7,29.52,29.52,0,0,0,8.54,14.43,27.47,27.47,0,0,0,37.48-.25,29.09,29.09,0,0,0,7.12-10.69c5.19-10.91,9.07-27.64,11.58-49.81a74.27,74.27,0,0,0,11.7.91c34.6,0,69.22-22.45,88.53-55.42.09-.15.17-.3.25-.46,12-20.74,16.72-43.74,13.74-64.28,5.85-.72,11.36-1.56,16.46-2.51a7.81,7.81,0,0,0,6.06-9.09,7.54,7.54,0,0,0-8.7-6.33c-5.4,1-11.33,1.89-17.67,2.63a65.43,65.43,0,0,0-14.11-22.75A62,62,0,0,0,407.11,243c2.29-21.52,5.91-37.79,10.55-47.28.1-.2.19-.42.28-.64a13.55,13.55,0,0,1,2.91-4.55l.38-.42,0,0a12.79,12.79,0,0,1,17.45-.12,13.73,13.73,0,0,1,4.31,8.45,12.32,12.32,0,0,0,5.69,9,11.57,11.57,0,0,0,10.55.91,12.72,12.72,0,0,1,14,3.08A14.08,14.08,0,0,1,476.18,226a13.09,13.09,0,0,0,.87,11,11.77,11.77,0,0,0,8.67,6,12.73,12.73,0,0,1,8.1,4.49,14.24,14.24,0,0,1-.11,18.21,13.16,13.16,0,0,1-4.94,3.54,8,8,0,0,0-4.27,10.14,7.52,7.52,0,0,0,7,5,7.32,7.32,0,0,0,2.73-.53,27.85,27.85,0,0,0,10.58-7.59A30.61,30.61,0,0,0,505.05,237.07ZM27.31,26.6,43.35,16l16,10.63a13,13,0,0,0,14.38,0L89.8,16l16,10.64a13,13,0,0,0,14.35,0l16-10.64,16,10.64a13,13,0,0,0,14.37,0l16-10.63,16.05,10.64a13,13,0,0,0,14.36,0l16-10.63,16.05,10.64a13,13,0,0,0,14.36,0l16-10.64,16,10.64a13,13,0,0,0,12.32,1.12V55.23H15V27.72A12.94,12.94,0,0,0,27.31,26.6Zm378.1,345.1-.2.21-.06.07L350.82,260.21a79,79,0,0,1,17.82-5.49L417.85,356A104.92,104.92,0,0,1,405.41,371.7Zm-176.28,67-16-10.63a13,13,0,0,0-14.38,0l-16,10.64-16-10.63a12.94,12.94,0,0,0-14.37,0l-16,10.64-16-10.63a12.94,12.94,0,0,0-14.37,0l-16,10.64-16-10.63a13,13,0,0,0-14.39,0l-16,10.64-16-10.63A13,13,0,0,0,15,426.94V399.42H213.18a29.71,29.71,0,0,0,6.88,17.43,28,28,0,0,0,13.83,8.92,30.61,30.61,0,0,0-.68,10.21Zm78.4,19.38a6.76,6.76,0,0,0-.29.67,13.41,13.41,0,0,1-3.38,5.15,12.79,12.79,0,0,1-17.45.13,13.79,13.79,0,0,1-4.3-8.46,12.34,12.34,0,0,0-5.69-9,11.6,11.6,0,0,0-10.58-.92,12.69,12.69,0,0,1-14-3.06A14.11,14.11,0,0,1,248.94,428a13.12,13.12,0,0,0-.88-11.05A11.77,11.77,0,0,0,239.4,411a12.74,12.74,0,0,1-8.11-4.51A14.21,14.21,0,0,1,228.47,394c.07-.22.13-.45.18-.67a13.57,13.57,0,0,1,2.77-5.11v0a1,1,0,0,0,.15-.14l.27-.26a13.1,13.1,0,0,1,4.38-3.06,6.54,6.54,0,0,0,.6-.28c9-4.82,24.62-8.6,45.27-11a65.53,65.53,0,0,0,14.1,22.78A62.16,62.16,0,0,0,318,411C315.7,432.37,312.11,448.58,307.53,458.07Zm21.07-59.86a6.45,6.45,0,0,0-1-.28,48.18,48.18,0,0,1-20.84-12.76,51.15,51.15,0,0,1-12.24-21.85,7.21,7.21,0,0,0-.22-.83c-4.38-16.6-1.77-36.25,7.29-54.59.09-.17.18-.34.26-.52a103.51,103.51,0,0,1,17.81-25.15,101.58,101.58,0,0,1,17.79-14.82l55.92,115C372.66,398.24,348.37,403.86,328.6,398.21ZM430.53,290.53a6.62,6.62,0,0,0,.26,1c3.82,14.54,2.28,31.42-4.25,47.71L385,253.72a55.89,55.89,0,0,1,11.5,2c.32.11.66.21,1,.29a48,48,0,0,1,20.83,12.75A51.15,51.15,0,0,1,430.53,290.53Z"/></g></g></svg>