<svg xmlns="http://www.w3.org/2000/svg" viewBox="0 0 505 512"><defs><style>.cls-1{fill:#595959;}</style></defs><title>Tea &amp;amp; Coffee &amp;amp; Breakfast</title><g id="Layer_2" data-name="Layer 2"><g id="Capa_1" data-name="Capa 1"><path class="cls-1" d="M491.8,428.55H414.35a7.52,7.52,0,1,0,0,15h69.43v4.23L367,468.52H132.85L16,447.78v-4.23H384.56a7.52,7.52,0,1,0,0-15H332.82a154.09,154.09,0,0,0,26.55-19.87,145.82,145.82,0,0,0,28.41-36.39,89.52,89.52,0,0,0,32,5.82c47,0,85.2-35.74,85.2-79.67s-38.22-79.66-85.2-79.66A91.28,91.28,0,0,0,404.71,220v-4.29c0-9.6-8.36-17.41-18.62-17.41H348.15a7.52,7.52,0,1,0,0,15h37.94a2.49,2.49,0,0,1,2.57,2.41V228.5H111.15V215.75a2.49,2.49,0,0,1,2.57-2.41H318.35a7.52,7.52,0,1,0,0-15H113.72c-10.26,0-18.62,7.81-18.62,17.41v90.58a136,136,0,0,0,4.18,33.42c-13.06-3.64-28.62-.78-42.81,8.3a7.2,7.2,0,0,0-2.09,10.43,8.37,8.37,0,0,0,11.15,1.95c9.3-5.95,19.06-8.28,27.14-6.77L63.45,394.53a7.2,7.2,0,0,0,2.21,10.4,8.36,8.36,0,0,0,4.45,1.27,8.16,8.16,0,0,0,6.67-3.33L106,362c3,4.21,4.69,9.71,4.77,16.13h0v0c.11,9.91-3.59,20.62-10.42,30.17a60.78,60.78,0,0,1-13.71,13.91,51.73,51.73,0,0,1-11.3,6.31H50c-.29-.16-.58-.32-.87-.51-13.35-8.34-14.2-29.9-1.92-49.1a7.24,7.24,0,0,0-2.77-10.29,8.35,8.35,0,0,0-11,2.59c-7.83,12.24-11.65,25.87-10.76,38.39a42.08,42.08,0,0,0,5.76,18.92H8a7.77,7.77,0,0,0-8,7.5V454a7.65,7.65,0,0,0,6.53,7.37l118,20.94v22.2a7.77,7.77,0,0,0,8,7.5h234.8a7.77,7.77,0,0,0,8-7.5V482.31l118-20.95a7.65,7.65,0,0,0,6.52-7.37V436.05A7.77,7.77,0,0,0,491.8,428.55ZM404.71,306.33V270.85h0a34.85,34.85,0,0,1,15.09-3.42c18.29,0,33.17,13.91,33.17,31s-14.88,31-33.17,31a34.65,34.65,0,0,1-16.42-4.08A138.3,138.3,0,0,0,404.71,306.33Zm-4.38,34.38a52,52,0,0,0,19.47,3.74c27.13,0,49.21-20.64,49.21-46s-22.08-46-49.21-46a52.13,52.13,0,0,0-15.09,2.22V235.34a73.67,73.67,0,0,1,15.09-1.56c38.13,0,69.16,29,69.16,64.66s-31,64.67-69.16,64.67a72.65,72.65,0,0,1-25.44-4.54A135.6,135.6,0,0,0,400.33,340.71ZM111.15,243.5H388.66v62.83c0,34.66-14.43,67.24-40.63,91.75a141.36,141.36,0,0,1-51.48,30.47H203.28c-2.58-.86-5.16-1.79-7.7-2.8,5.89-8.65,8.13-18.28,6.19-27.45v0s0,0,0,0c-2.56-11.93-11.58-21.75-25.41-27.65-12.95-5.53-28.78-7-44.58-4-1.43.26-2.86.57-4.27.9a123,123,0,0,1-16.35-61.12Zm2.55,173.17c7.42-10.39,11.91-22,12.91-33.33a72.8,72.8,0,0,1,8.29-2.08c20.41-3.79,40.09,1.95,47.94,12.88l-51.55,9.58a7.53,7.53,0,0,0-6.31,8.81,7.91,7.91,0,0,0,7.86,6,8.33,8.33,0,0,0,1.57-.14L186,408.84c-1,4.93-4,9.88-8.68,14.42l0,0a48.32,48.32,0,0,1-6.6,5.25H103.23A77.9,77.9,0,0,0,113.7,416.67ZM359.28,497H140.53V483.52H359.28Z"/><path class="cls-1" d="M270.79,150c-.15.09-.27.15-.35.21Z"/><path class="cls-1" d="M270.44,150.15Z"/><path class="cls-1" d="M288.15,81.87a49.54,49.54,0,0,0,17-37.18c0-17.78-9.63-34-25.75-43.54a8.36,8.36,0,0,0-11.06,2.36,7.22,7.22,0,0,0,2.52,10.34c11.43,6.72,18.25,18.25,18.25,30.83s-6.82,24.12-18.25,30.84a7.32,7.32,0,0,0,0,12.7c11.43,6.72,18.25,18.24,18.25,30.83s-6.82,24.12-18.25,30.84l-.1.06.1-.06a7.21,7.21,0,0,0-2.52,10.34,8.16,8.16,0,0,0,6.8,3.51,8.38,8.38,0,0,0,4.26-1.16c16.12-9.48,25.75-25.75,25.75-43.53A49.54,49.54,0,0,0,288.15,81.87Zm-13.07,65.56ZM274,148l.49-.28Z"/><path class="cls-1" d="M335.89,75.52a8.36,8.36,0,0,0-11.06,2.36,7.22,7.22,0,0,0,2.51,10.34c11.43,6.72,18.25,18.25,18.25,30.83s-6.82,24.12-18.25,30.84a7.21,7.21,0,0,0-2.51,10.34,8.14,8.14,0,0,0,6.79,3.51,8.44,8.44,0,0,0,4.27-1.16c16.12-9.48,25.74-25.75,25.74-43.53S352,85,335.89,75.52Z"/><path class="cls-1" d="M218.36,75.52a8.36,8.36,0,0,0-11.06,2.35,7.23,7.23,0,0,0,2.52,10.35c11.42,6.72,18.24,18.24,18.24,30.83s-6.82,24.12-18.24,30.84a7.21,7.21,0,0,0-2.52,10.34,8.14,8.14,0,0,0,6.79,3.51,8.44,8.44,0,0,0,4.27-1.16c16.12-9.48,25.74-25.75,25.74-43.53S234.48,85,218.36,75.52Z"/></g></g></svg>